<svg width="53" height="40" viewBox="0 0 53 40" fill="none" xmlns="http://www.w3.org/2000/svg">
<g clip-path="url(#clip0_47_61)">
<mask id="mask0_47_61" style="mask-type:luminance" maskUnits="userSpaceOnUse" x="0" y="0" width="53" height="40">
<path d="M53 0H0V40H53V0Z" fill="white"/>
</mask>
<g mask="url(#mask0_47_61)">
<path d="M0 0H53V40H0V0Z" fill="#3354BF"/>
<path d="M6.21094 0L26.4172 15.0833L46.5406 0H53V5.16667L33.125 20.0833L53 34.9167V40H46.375L26.5 25.0833L6.70781 40H0V35L19.7922 20.1667L0 5.33333V0H6.21094Z" fill="#DDDDDD"/>
<path d="M35.1125 23.4167L53 36.6667V40L30.5578 23.4167H35.1125ZM19.875 25.0833L20.3719 28L4.47188 40H0L19.875 25.0833ZM53 0V0.25L32.3797 15.9167L32.5453 12.25L48.8594 0H53ZM0 0L19.7922 14.6667H14.8234L0 3.5V0Z" fill="#BF3D33"/>
<path d="M19.9578 0V40H33.2078V0H19.9578ZM0 13.3333V26.6667H53V13.3333H0Z" fill="#DDDDDD"/>
<path d="M0 16.0833V24.0833H53V16.0833H0ZM22.6078 0V40H30.5578V0H22.6078Z" fill="#BF3D33"/>
</g>
</g>
<defs>
<clipPath id="clip0_47_61">
<rect width="53" height="40" rx="8" fill="white"/>
</clipPath>
</defs>
</svg>
